<svg width="69" height="28" viewBox="0 0 69 28" fill="none" xmlns="http://www.w3.org/2000/svg">
<path d="M61.2221 4.94118V3.29412C61.2221 2.42046 60.4027 1.58259 58.944 0.964825C57.4854 0.347058 55.5071 0 53.4443 0H45.6665C43.6037 0 41.6254 0.347058 40.1668 0.964825C38.7082 1.58259 37.8888 2.42046 37.8888 3.29412V4.94118H30.111V3.29412C30.111 2.42046 29.2915 1.58259 27.8329 0.964825C26.3743 0.347058 24.396 0 22.3332 0H14.5554C12.4926 0 10.5143 0.347058 9.05571 0.964825C7.5971 1.58259 6.77766 2.42046 6.77766 3.29412V4.94118H-1.00012V28H68.9999V4.94118H61.2221Z" fill="black"/>
</svg>
