<svg width="52" height="52" viewBox="0 0 52 52" fill="none" xmlns="http://www.w3.org/2000/svg">
<g clip-path="url(#clip0_1_2009)">
<path d="M43.85 0.228027H8.15C3.92502 0.228027 0.5 3.45158 0.5 7.42803V41.028C0.5 45.0045 3.92502 48.228 8.15 48.228H43.85C48.075 48.228 51.5 45.0045 51.5 41.028V7.42803C51.5 3.45158 48.075 0.228027 43.85 0.228027Z" fill="#3B5998"/>
<path d="M29.0879 45.6499V15.8667C29.0879 13.7749 29.6855 12.3804 32.5742 12.3804H36.3594V6.10498C35.6621 6.00537 33.4707 5.80615 30.8809 5.80615C25.502 5.80615 21.8164 9.09326 21.8164 15.1694V45.6499M36.0605 20.3491H15.6406V27.521H35.1641" fill="white"/>
</g>
<defs>
<clipPath id="clip0_1_2009">
<rect width="51" height="51" fill="white" transform="translate(0.5 0.228027)"/>
</clipPath>
</defs>
</svg>
