<svg width="53" height="53" viewBox="0 0 53 53" fill="none" xmlns="http://www.w3.org/2000/svg">
<g clip-path="url(#clip0_1_2014)">
<path d="M26.5101 0.238281C15.6531 0.238281 12.4844 0.248437 11.8648 0.299219C9.63044 0.482031 8.24919 0.8375 6.73591 1.58906C5.5781 2.16797 4.65388 2.82813 3.74998 3.77266C2.10466 5.48906 1.09919 7.59141 0.743726 10.1C0.571069 11.3187 0.520288 11.5625 0.510132 17.7781V26.2281C0.510132 37.075 0.520288 40.2438 0.571069 40.8633C0.753882 43.0266 1.08904 44.3977 1.81013 45.8906C3.18123 48.7445 5.81169 50.8875 8.90935 51.6898C9.98591 51.9641 11.164 52.1164 12.6875 52.1875C13.3273 52.218 19.8984 52.2383 26.4594 52.2383C33.0203 52.2383 39.5914 52.2281 40.2211 52.1977C41.9781 52.1164 43.0039 51.9742 44.1312 51.6898C47.2492 50.8875 49.8289 48.775 51.2304 45.8805C51.9414 44.4281 52.2969 43.0062 52.4594 40.9547C52.4898 40.5078 52.5101 33.368 52.5101 26.2383C52.5101 19.1086 52.4898 11.9789 52.4594 11.532C52.2969 9.43984 51.9414 8.03828 51.2101 6.55547C50.6109 5.33672 49.9508 4.43281 48.9859 3.50859C47.2695 1.86328 45.1672 0.867969 42.6586 0.502344C41.4398 0.329688 41.2062 0.278906 34.9906 0.26875H26.5101V0.238281Z" fill="url(#paint0_radial_1_2014)"/>
<path d="M26.5101 0.238281C15.6531 0.238281 12.4844 0.248437 11.8648 0.299219C9.63044 0.482031 8.24919 0.8375 6.73591 1.58906C5.5781 2.16797 4.65388 2.82813 3.74998 3.77266C2.10466 5.48906 1.09919 7.59141 0.743726 10.1C0.571069 11.3187 0.520288 11.5625 0.510132 17.7781V26.2281C0.510132 37.075 0.520288 40.2438 0.571069 40.8633C0.753882 43.0266 1.08904 44.3977 1.81013 45.8906C3.18123 48.7445 5.81169 50.8875 8.90935 51.6898C9.98591 51.9641 11.164 52.1164 12.6875 52.1875C13.3273 52.218 19.8984 52.2383 26.4594 52.2383C33.0203 52.2383 39.5914 52.2281 40.2211 52.1977C41.9781 52.1164 43.0039 51.9742 44.1312 51.6898C47.2492 50.8875 49.8289 48.775 51.2304 45.8805C51.9414 44.4281 52.2969 43.0062 52.4594 40.9547C52.4898 40.5078 52.5101 33.368 52.5101 26.2383C52.5101 19.1086 52.4898 11.9789 52.4594 11.532C52.2969 9.43984 51.9414 8.03828 51.2101 6.55547C50.6109 5.33672 49.9508 4.43281 48.9859 3.50859C47.2695 1.86328 45.1672 0.867969 42.6586 0.502344C41.4398 0.329688 41.2062 0.278906 34.9906 0.26875H26.5101V0.238281Z" fill="url(#paint1_radial_1_2014)"/>
<path d="M26.5 7.03271C21.2898 7.03271 20.6297 7.05303 18.5883 7.14443C16.5469 7.23584 15.1453 7.56084 13.9266 8.03818C12.6672 8.52568 11.5906 9.18584 10.5242 10.2522C9.45781 11.3187 8.79766 12.3952 8.31016 13.6546C7.83281 14.8733 7.50781 16.2749 7.41641 18.3163C7.325 20.3679 7.30469 21.0179 7.30469 26.228C7.30469 31.4382 7.325 32.0983 7.41641 34.1397C7.50781 36.1812 7.83281 37.5827 8.31016 38.8015C8.79766 40.0608 9.45781 41.1374 10.5242 42.2038C11.5906 43.2702 12.657 43.9304 13.9266 44.4179C15.1453 44.8952 16.5469 45.2202 18.5883 45.3116C20.6398 45.403 21.2898 45.4233 26.5 45.4233C31.7102 45.4233 32.3703 45.403 34.4117 45.3116C36.4531 45.2202 37.8547 44.8952 39.0734 44.4179C40.3328 43.9304 41.4094 43.2702 42.4758 42.2038C43.5422 41.1374 44.2023 40.0608 44.6898 38.8015C45.157 37.5827 45.482 36.1812 45.5836 34.1397C45.675 32.0882 45.6953 31.4382 45.6953 26.228C45.6953 21.0179 45.675 20.3577 45.5836 18.3163C45.4922 16.2749 45.1672 14.8733 44.6898 13.6546C44.2023 12.3952 43.5422 11.3187 42.4758 10.2522C41.4094 9.18584 40.343 8.52568 39.0734 8.03818C37.8547 7.56084 36.4531 7.23584 34.4117 7.14443C32.3602 7.05303 31.7102 7.03271 26.5 7.03271ZM24.7734 10.496H26.5C31.6289 10.496 32.2281 10.5163 34.2594 10.6077C36.1281 10.689 37.1437 11.0038 37.8242 11.2679C38.718 11.6132 39.3578 12.0296 40.0281 12.6999C40.6984 13.3702 41.1148 14.0101 41.4602 14.9038C41.7242 15.5843 42.0391 16.5999 42.1203 18.4687C42.2117 20.4897 42.232 21.0991 42.232 26.228C42.232 31.3569 42.2117 31.9562 42.1203 33.9874C42.0391 35.8562 41.7242 36.8718 41.4602 37.5522C41.1148 38.446 40.6984 39.0858 40.0281 39.7562C39.3578 40.4265 38.718 40.8429 37.8242 41.1882C37.1437 41.4522 36.1281 41.7671 34.2594 41.8483C32.2383 41.9397 31.6289 41.9601 26.5 41.9601C21.3711 41.9601 20.7617 41.9397 18.7406 41.8483C16.8719 41.7569 15.8562 41.4522 15.1758 41.1882C14.282 40.8429 13.6422 40.4265 12.9719 39.7562C12.3016 39.0858 11.8852 38.446 11.5398 37.5522C11.2758 36.8718 10.9609 35.8562 10.8797 33.9874C10.7883 31.9663 10.768 31.3569 10.768 26.228C10.768 21.0991 10.7883 20.4999 10.8797 18.4687C10.9609 16.5999 11.2758 15.5843 11.5398 14.9038C11.8852 14.0101 12.3016 13.3702 12.9719 12.6999C13.6422 12.0296 14.282 11.6132 15.1758 11.2679C15.8562 11.0038 16.8719 10.689 18.7406 10.6077C20.5078 10.5163 21.1984 10.496 24.7734 10.496ZM36.7477 13.6851C35.4781 13.6851 34.4422 14.7108 34.4422 15.9905C34.4422 17.2601 35.4781 18.296 36.7477 18.296C38.0172 18.296 39.0531 17.2601 39.0531 15.9905C39.0531 14.721 38.0172 13.6749 36.7477 13.6851ZM26.5 16.3765C21.0563 16.3765 16.6383 20.7944 16.6383 26.2382C16.6383 31.6819 21.0563 36.0897 26.5 36.0897C31.9438 36.0897 36.3516 31.6819 36.3516 26.2382C36.3516 20.7944 31.9438 16.3765 26.5 16.3765ZM26.5 19.8296C30.0344 19.8296 32.8984 22.6937 32.8984 26.228C32.8984 29.7624 30.0344 32.6265 26.5 32.6265C22.9656 32.6265 20.1016 29.7624 20.1016 26.228C20.1016 22.6937 22.9656 19.8296 26.5 19.8296Z" fill="white"/>
</g>
<defs>
<radialGradient id="paint0_radial_1_2014" cx="0" cy="0" r="1" gradientUnits="userSpaceOnUse" gradientTransform="translate(14.3126 56.2254) rotate(-90) scale(51.5223 47.9324)">
<stop stop-color="#FFDD55"/>
<stop offset="0.1" stop-color="#FFDD55"/>
<stop offset="0.5" stop-color="#FF543E"/>
<stop offset="1" stop-color="#C837AB"/>
</radialGradient>
<radialGradient id="paint1_radial_1_2014" cx="0" cy="0" r="1" gradientUnits="userSpaceOnUse" gradientTransform="translate(-8.21139 3.97933) rotate(78.6799) scale(23.03 94.9575)">
<stop stop-color="#3771C8"/>
<stop offset="0.128" stop-color="#3771C8"/>
<stop offset="1" stop-color="#6600FF" stop-opacity="0"/>
</radialGradient>
<clipPath id="clip0_1_2014">
<rect width="52" height="52" fill="white" transform="translate(0.5 0.228027)"/>
</clipPath>
</defs>
</svg>
